REM GENRE Other
REM DATE 2013
REM DISCID C8124E0E
REM COMMENT "ExactAudioCopy v1.0b3"
PERFORMER ""
TITLE "Demo DTS CD-Audio #7 [ALLic]"
FILE "Demo DTS CD-Audio #7 [ALLic].wav" WAVE
  TRACK 01 AUDIO
    TITLE "Amazing"
    PERFORMER "Seal 2007"
    INDEX 01 00:00:00
  TRACK 02 AUDIO
    TITLE "Drifted"
    PERFORMER "Groove Armada 2001"
    INDEX 00 03:27:61
    INDEX 01 03:27:63
  TRACK 03 AUDIO
    TITLE "Long Train Runnin'"
    PERFORMER "The Doobie Brothers 1973"
    INDEX 00 08:24:02
    INDEX 01 08:24:04
  TRACK 04 AUDIO
    TITLE "Everyday Is A Winding Road"
    PERFORMER "Sheryl Crow 1986"
    INDEX 00 11:42:42
    INDEX 01 11:42:44
  TRACK 05 AUDIO
    TITLE "Fogma"
    PERFORMER "Groove Armada 2001"
    INDEX 00 16:06:67
    INDEX 01 16:06:69
  TRACK 06 AUDIO
    TITLE "Poker Face"
    PERFORMER "Lady Gaga 2008"
    INDEX 00 23:01:73
    INDEX 01 23:02:00
  TRACK 07 AUDIO
    TITLE "Antonin Dvorak - Symphony No. 9"
    PERFORMER "Netherlands Philharmonic Orchestra 2003"
    INDEX 00 27:01:03
    INDEX 01 27:01:05
  TRACK 08 AUDIO
    TITLE "Tchaikovsky - The Nutcracker"
    PERFORMER "Pas De Deux"
    INDEX 00 38:49:54
    INDEX 01 38:49:56
  TRACK 09 AUDIO
    TITLE "Lazy Moon"
    PERFORMER "Groove Armada 2001"
    INDEX 00 43:07:24
    INDEX 01 43:07:26
  TRACK 10 AUDIO
    TITLE "Shout"
    PERFORMER "Tears For Fears 1985"
    INDEX 00 49:43:32
    INDEX 01 49:43:34
  TRACK 11 AUDIO
    TITLE "She Drives Me Crazy"
    PERFORMER "Fine Young Cannibals 1989"
    INDEX 00 56:20:59
    INDEX 01 56:20:61
  TRACK 12 AUDIO
    TITLE "Edge Hill"
    PERFORMER "Groove Armada 2001"
    INDEX 00 59:46:47
    INDEX 01 59:46:49
  TRACK 13 AUDIO
    TITLE "Cold As Ice"
    PERFORMER "Foreigner 1977"
    INDEX 00 66:41:67
    INDEX 01 66:41:69
  TRACK 14 AUDIO
    TITLE "Ludwig van Beethoven - Symphony No. 5"
    PERFORMER "San Francisco Symphony"
    INDEX 00 70:02:25
    INDEX 01 70:02:27
